REM DIRINDEX 1\2,1\3,1\4
REM DIRNAME cjc151,folder01,folder02,folder03
TITLE ""
FILE "079 079_TOEFL_3900.mp3" MP3
  TRACK 01 AUDIO
    TITLE "2:cjc151_3427"
    INDEX 01 00:00:00
  TRACK 02 AUDIO
    TITLE "0:"
    INDEX 01 00:01:13
  TRACK 03 AUDIO
    TITLE "3:cjc151_3428"
    INDEX 01 00:02:65
  TRACK 04 AUDIO
    TITLE "0:"
    INDEX 01 00:06:63
  TRACK 05 AUDIO
    TITLE "2:cjc151_3429"
    INDEX 01 00:08:40
  TRACK 06 AUDIO
    TITLE "0:"
    INDEX 01 00:09:40
  TRACK 07 AUDIO
    TITLE "3:cjc151_3430"
    INDEX 01 00:11:17
  TRACK 08 AUDIO
    TITLE "0:"
    INDEX 01 00:15:01
  TRACK 09 AUDIO
    TITLE "2:cjc151_3431"
    INDEX 01 00:16:55
  TRACK 10 AUDIO
    TITLE "0:"
    INDEX 01 00:17:47
  TRACK 11 AUDIO
    TITLE "3:cjc151_3432"
    INDEX 01 00:19:54
  TRACK 12 AUDIO
    TITLE "0:"
    INDEX 01 00:22:46
  TRACK 13 AUDIO
    TITLE "2:cjc151_3433"
    INDEX 01 00:24:25
  TRACK 14 AUDIO
    TITLE "0:"
    INDEX 01 00:25:46
  TRACK 15 AUDIO
    TITLE "3:cjc151_3434"
    INDEX 01 00:27:26
  TRACK 16 AUDIO
    TITLE "0:"
    INDEX 01 00:31:71
  TRACK 17 AUDIO
    TITLE "2:cjc151_3435"
    INDEX 01 00:33:48
  TRACK 18 AUDIO
    TITLE "0:"
    INDEX 01 00:34:67
  TRACK 19 AUDIO
    TITLE "3:cjc151_3436"
    INDEX 01 00:36:44
  TRACK 20 AUDIO
    TITLE "0:"
    INDEX 01 00:40:72
  TRACK 21 AUDIO
    TITLE "2:cjc151_3437"
    INDEX 01 00:42:51
  TRACK 22 AUDIO
    TITLE "0:"
    INDEX 01 00:43:64
  TRACK 23 AUDIO
    TITLE "3:cjc151_3438"
    INDEX 01 00:45:43
  TRACK 24 AUDIO
    TITLE "0:"
    INDEX 01 00:49:02
  TRACK 25 AUDIO
    TITLE "2:cjc151_3439"
    INDEX 01 00:50:56
  TRACK 26 AUDIO
    TITLE "0:"
    INDEX 01 00:51:69
  TRACK 27 AUDIO
    TITLE "3:cjc151_3440"
    INDEX 01 00:53:53
  TRACK 28 AUDIO
    TITLE "0:"
    INDEX 01 00:56:69
  TRACK 29 AUDIO
    TITLE "2:cjc151_3441"
    INDEX 01 00:58:48
  TRACK 30 AUDIO
    TITLE "0:"
    INDEX 01 00:59:63
  TRACK 31 AUDIO
    TITLE "3:cjc151_3442"
    INDEX 01 01:01:42
  TRACK 32 AUDIO
    TITLE "0:"
    INDEX 01 01:05:52
  TRACK 33 AUDIO
    TITLE "2:cjc151_3443"
    INDEX 01 01:07:31
  TRACK 34 AUDIO
    TITLE "0:"
    INDEX 01 01:08:46
  TRACK 35 AUDIO
    TITLE "3:cjc151_3444"
    INDEX 01 01:10:22
  TRACK 36 AUDIO
    TITLE "0:"
    INDEX 01 01:13:40
  TRACK 37 AUDIO
    TITLE "2:cjc151_3445"
    INDEX 01 01:15:19
  TRACK 38 AUDIO
    TITLE "0:"
    INDEX 01 01:16:36
  TRACK 39 AUDIO
    TITLE "3:cjc151_3446"
    INDEX 01 01:18:13
  TRACK 40 AUDIO
    TITLE "0:"
    INDEX 01 01:22:21
  TRACK 41 AUDIO
    TITLE "2:cjc151_3447"
    INDEX 01 01:24:00
  TRACK 42 AUDIO
    TITLE "0:"
    INDEX 01 01:25:02
  TRACK 43 AUDIO
    TITLE "3:cjc151_3448"
    INDEX 01 01:26:56
  TRACK 44 AUDIO
    TITLE "0:"
    INDEX 01 01:31:04
  TRACK 45 AUDIO
    TITLE "2:cjc151_3449"
    INDEX 01 01:32:60
  TRACK 46 AUDIO
    TITLE "0:"
    INDEX 01 01:33:66
  TRACK 47 AUDIO
    TITLE "3:cjc151_3450"
    INDEX 01 01:35:39
  TRACK 48 AUDIO
    TITLE "0:"
    INDEX 01 01:39:33
  TRACK 49 AUDIO
    TITLE "2:cjc151_3451"
    INDEX 01 01:41:20
  TRACK 50 AUDIO
    TITLE "0:"
    INDEX 01 01:42:41
  TRACK 51 AUDIO
    TITLE "3:cjc151_3452"
    INDEX 01 01:44:23
  TRACK 52 AUDIO
    TITLE "0:"
    INDEX 01 01:48:26
  TRACK 53 AUDIO
    TITLE "2:cjc151_3453"
    INDEX 01 01:50:15
  TRACK 54 AUDIO
    TITLE "0:"
    INDEX 01 01:51:11
  TRACK 55 AUDIO
    TITLE "3:cjc151_3454"
    INDEX 01 01:52:69
  TRACK 56 AUDIO
    TITLE "0:"
    INDEX 01 01:56:61
  TRACK 57 AUDIO
    TITLE "2:cjc151_3455"
    INDEX 01 01:58:38
  TRACK 58 AUDIO
    TITLE "0:"
    INDEX 01 01:59:51
  TRACK 59 AUDIO
    TITLE "3:cjc151_3456"
    INDEX 01 02:01:27
  TRACK 60 AUDIO
    TITLE "0:"
    INDEX 01 02:05:58
  TRACK 61 AUDIO
    TITLE "2:cjc151_3457"
    INDEX 01 02:07:35
  TRACK 62 AUDIO
    TITLE "0:"
    INDEX 01 02:08:60
  TRACK 63 AUDIO
    TITLE "3:cjc151_3458"
    INDEX 01 02:10:42
  TRACK 64 AUDIO
    TITLE "0:"
    INDEX 01 02:14:31
  TRACK 65 AUDIO
    TITLE "2:cjc151_3459"
    INDEX 01 02:16:11
  TRACK 66 AUDIO
    TITLE "0:"
    INDEX 01 02:17:14
  TRACK 67 AUDIO
    TITLE "3:cjc151_3460"
    INDEX 01 02:18:68
  TRACK 68 AUDIO
    TITLE "0:"
    INDEX 01 02:23:17
  TRACK 69 AUDIO
    TITLE "2:cjc151_3461"
    INDEX 01 02:24:71
  TRACK 70 AUDIO
    TITLE "0:"
    INDEX 01 02:26:09
  TRACK 71 AUDIO
    TITLE "3:cjc151_3462"
    INDEX 01 02:27:69
  TRACK 72 AUDIO
    TITLE "0:"
    INDEX 01 02:31:44
  TRACK 73 AUDIO
    TITLE "2:cjc151_3463"
    INDEX 01 02:33:21
  TRACK 74 AUDIO
    TITLE "0:"
    INDEX 01 02:34:42
  TRACK 75 AUDIO
    TITLE "3:cjc151_3464"
    INDEX 01 02:36:21
  TRACK 76 AUDIO
    TITLE "0:"
    INDEX 01 02:39:33
  TRACK 77 AUDIO
    TITLE "2:cjc151_3465"
    INDEX 01 02:41:11
  TRACK 78 AUDIO
    TITLE "0:"
    INDEX 01 02:42:22
  TRACK 79 AUDIO
    TITLE "3:cjc151_3466"
    INDEX 01 02:44:01
  TRACK 80 AUDIO
    TITLE "0:"
    INDEX 01 02:47:58
  TRACK 81 AUDIO
    TITLE "2:cjc151_3467"
    INDEX 01 02:49:38
  TRACK 82 AUDIO
    TITLE "0:"
    INDEX 01 02:50:59
  TRACK 83 AUDIO
    TITLE "3:cjc151_3468"
    INDEX 01 02:52:38
  TRACK 84 AUDIO
    TITLE "0:"
    INDEX 01 02:56:46
  TRACK 85 AUDIO
    TITLE "2:cjc151_3469"
    INDEX 01 02:58:41
  TRACK 86 AUDIO
    TITLE "0:"
    INDEX 01 02:59:44
  TRACK 87 AUDIO
    TITLE "3:cjc151_3470"
    INDEX 01 03:01:23
  TRACK 88 AUDIO
    TITLE "0:"
    INDEX 01 03:05:09
